# xmcd CD database file
#
# Track frame offsets:
#	150
#	20465
#	37128
#	47355
#	72458
#	91405
#	100298
#
# Disc length: 1660 seconds
#
# Revision: 3
# Processed by: cddbd v1.5.2PL0 Copyright (c) Steve Scherf et al.
# Submitted via: CDex 1.70beta2
#
DISCID=58067a07
DTITLE=中村暢之 - 魔法陣グルグル オリジナル・サウンドトラック Vol.2
DYEAR=1995
DGENRE=Anime
TTITLE0=奥井亜紀 - 晴れてハレルヤ
TTITLE1=最後のパーティー 〈調子いいですぞ～〉
TTITLE2=ニケの秘められた力！ 〈魔法剣キラキラ〉
TTITLE3=魔界のプリンス・レイド！ 〈もけもけさ～〉
TTITLE4=炸裂！ククリのラブ・アタック 〈愛の劇場〉
TTITLE5=二人のレベル・アップ！ 〈See You Again〉
TTITLE6=奥井亜紀 - Wind Climbing～風にあそばれて～ 〈ロングバージョン〉
EXTD=YEAR: 1995
EXTT0=
EXTT1=
EXTT2=
EXTT3=
EXTT4=
EXTT5=
EXTT6=
PLAYORDER=
